<svg id="visibility_black_24dp" xmlns="http://www.w3.org/2000/svg" width="27.699" height="27.699" viewBox="0 0 27.699 27.699">
  <path id="Path_42" data-name="Path 42" d="M0,0H27.7V27.7H0Z" fill="none"/>
  <path id="Path_43" data-name="Path 43" d="M13.7,6.308a11.276,11.276,0,0,1,10.179,6.348,11.336,11.336,0,0,1-20.358,0A11.276,11.276,0,0,1,13.7,6.308M13.7,4A13.649,13.649,0,0,0,1,12.656a13.638,13.638,0,0,0,25.39,0A13.649,13.649,0,0,0,13.7,4Zm0,5.771a2.885,2.885,0,1,1-2.885,2.885A2.886,2.886,0,0,1,13.7,9.771m0-2.308a5.193,5.193,0,1,0,5.193,5.193A5.2,5.2,0,0,0,13.7,7.462Z" transform="translate(0.154 0.616)" fill="#008cc6"/>
</svg>
